<svg xmlns="http://www.w3.org/2000/svg" data-name="Layer 1" viewBox="0 0 100 125" x="0px" y="0px"><title>Artboard 48</title><path d="M74,32.79l-21-12a6,6,0,0,0-6,0l-21,12A6,6,0,0,0,23,38V62a6,6,0,0,0,3,5.21l21,12a6,6,0,0,0,6,0l21-12A6,6,0,0,0,77,62V38A6,6,0,0,0,74,32.79ZM71,47H47.24l6.88-6.88-4.24-4.24-12,12a3,3,0,0,0,0,4.24l12,12,4.24-4.24L47.24,53H71v9L50,74,29,62V38L50,26,71,38Z"/><text x="0" y="115" fill="#000000" font-size="5px" font-weight="bold" font-family="'Helvetica Neue', Helvetica, Arial-Unicode, Arial, Sans-serif">Created by Gregor Cresnar</text><text x="0" y="120" fill="#000000" font-size="5px" font-weight="bold" font-family="'Helvetica Neue', Helvetica, Arial-Unicode, Arial, Sans-serif">from the Noun Project</text></svg>