<svg xmlns="http://www.w3.org/2000/svg" xmlns:xlink="http://www.w3.org/1999/xlink" version="1.1" x="0px" y="0px" viewBox="0 0 100 125" enable-background="new 0 0 100 100" xml:space="preserve"><g><g><path fill="#000000" d="M15.117,62.588c0-0.948,0.063-3.728,0.063-4.804c0-4.802-1.58-7.519-7.205-7.583    c-1.391-0.064-2.212-0.823-2.212-1.896c0-1.075,0.822-1.833,2.212-1.896c5.625-0.065,7.205-2.782,7.205-7.584    c0-1.076-0.063-3.856-0.063-4.805c0-6.383,2.211-10.364,12.578-12.513c1.138-0.253,2.148,0.441,2.148,1.579    c0,0.885-0.631,1.455-1.138,1.645c-8.027,2.211-8.975,4.423-8.975,9.923c0,1.263,0.063,3.412,0.063,4.739    c0,5.31-2.528,7.648-6.573,8.912c4.235,1.391,6.573,3.602,6.573,8.912c0,1.326-0.063,3.476-0.063,4.741    c0,5.498,0.947,7.709,8.975,9.921c0.506,0.19,1.138,0.76,1.138,1.644c0,1.14-1.01,1.835-2.148,1.579    C17.328,72.956,15.117,68.973,15.117,62.588z"/><path fill="#000000" d="M37.682,59.492c1.707,0,2.97,1.264,2.97,2.97v1.266c0,1.706-1.263,3.032-2.97,3.032    c-1.771,0-3.034-1.326-3.034-3.032v-1.266C34.648,60.756,35.912,59.492,37.682,59.492z"/><path fill="#000000" d="M50.007,59.492c1.706,0,2.972,1.264,2.972,2.97v1.266c0,1.706-1.267,3.032-2.972,3.032    c-1.77,0-3.034-1.326-3.034-3.032v-1.266C46.974,60.756,48.238,59.492,50.007,59.492z"/><path fill="#000000" d="M62.334,59.492c1.705,0,2.972,1.264,2.972,2.97v1.266c0,1.706-1.267,3.032-2.972,3.032    c-1.771,0-3.032-1.326-3.032-3.032v-1.266C59.302,60.756,60.563,59.492,62.334,59.492z"/><path fill="#000000" d="M84.835,34.021c0,0.949-0.062,3.729-0.062,4.805c0,4.803,1.515,7.52,7.203,7.584    c1.391,0.062,2.149,0.821,2.149,1.896c0,1.074-0.759,1.832-2.149,1.896c-5.688,0.064-7.203,2.781-7.203,7.583    c0,1.076,0.062,3.855,0.062,4.804c0,6.385-2.276,10.368-12.577,12.514c-1.2,0.256-2.15-0.439-2.15-1.579    c0-0.884,0.634-1.453,1.14-1.644c7.962-2.212,8.974-4.423,8.974-9.921c0-1.266-0.062-3.415-0.062-4.741    c0-5.31,2.526-7.647,6.573-8.912c-4.233-1.391-6.573-3.603-6.573-8.912c0-1.327,0.062-3.476,0.062-4.739    c0-5.5-1.012-7.712-8.974-9.923c-0.506-0.19-1.14-0.76-1.14-1.645c0-1.138,0.95-1.832,2.15-1.579    C82.559,23.656,84.835,27.637,84.835,34.021z"/></g></g><text x="0" y="115" fill="#000000" font-size="5px" font-weight="bold" font-family="'Helvetica Neue', Helvetica, Arial-Unicode, Arial, Sans-serif">Created by OLIVIA HABERMEL</text><text x="0" y="120" fill="#000000" font-size="5px" font-weight="bold" font-family="'Helvetica Neue', Helvetica, Arial-Unicode, Arial, Sans-serif">from the Noun Project</text></svg>