<svg xmlns="http://www.w3.org/2000/svg" xmlns:xlink="http://www.w3.org/1999/xlink" version="1.1" x="0px" y="0px" viewBox="0 0 100 125" enable-background="new 0 0 100 100" xml:space="preserve"><path d="M39.5,80.3c-5.1,0-10.1-2.1-13.9-6c-3.8-3.6-5.8-8.3-5.9-13.5c0-9.8,9.4-19.2,20.2-20.1c0.3,0,0.5,0,0.7,0  c5.1,0,8.9,2.1,12.3,3.9c2.6,1.4,4.8,2.6,7.1,2.6c2,0,3.9-1,6-3.1c1.7-1.7,2.5-4,2.2-6.2c-0.3-2-1.5-3.8-3.3-4.9  c-1.5-0.9-3-1.3-4.5-1.3c-3.2,0-5.7,2.2-7.2,4c-1.4,1.6-2.8,2.4-4.5,2.4c-0.9,0-1.8-0.2-2.7-0.7c-1.6-0.8-2.6-1.8-3-3.1  c-0.4-1.2-0.2-2.6,0.5-3.9c2.7-5,6.7-8.4,11.5-9.8c1.8-0.5,3.6-0.8,5.5-0.8c5.1,0,10.1,2.1,13.9,6c3.8,3.6,5.8,8.3,5.9,13.5  c0,9.8-9.4,19.2-20.2,20.1c-0.3,0-0.5,0-0.7,0c-5.1,0-8.9-2.1-12.3-3.9c-2.6-1.4-4.8-2.6-7.1-2.6c-2,0-3.9,1-6,3.1  c-1.7,1.7-2.5,4-2.2,6.2c0.3,2,1.5,3.8,3.3,4.9c1.5,0.9,3,1.3,4.5,1.3c3.2,0,5.7-2.2,7.2-4c1.4-1.6,2.8-2.4,4.5-2.4  c0.9,0,1.8,0.2,2.7,0.7c1.6,0.8,2.6,1.8,3,3.1c0.4,1.2,0.2,2.6-0.5,3.9c-2.7,5-6.7,8.4-11.5,9.8C43.2,80.1,41.3,80.3,39.5,80.3z"/><text x="0" y="115" fill="#000000" font-size="5px" font-weight="bold" font-family="'Helvetica Neue', Helvetica, Arial-Unicode, Arial, Sans-serif">Created by Haitham Almayman</text><text x="0" y="120" fill="#000000" font-size="5px" font-weight="bold" font-family="'Helvetica Neue', Helvetica, Arial-Unicode, Arial, Sans-serif">from the Noun Project</text></svg>